# xmcd
#
# Track frame offsets: 
#        150
#        13892
#        29107
#        40252
#        52835
#        68575
#        85562
#        104370
#        119552
#        134507
#        148602
#        164142
#
# Disc length: 2416 seconds
#
# Revision: 2
# Processed by: cddbd v1.5.2PL0 Copyright (c) Steve Scherf et al.
# Submitted via: ExactAudioCopy v0.95b4
#
DISCID=ab096e0c
DTITLE=Roger Whittaker - Thirty-six all-time favorites: Live
DYEAR=1992
DGENRE=Easy Listening
TTITLE0=New World In The Morning
TTITLE1=Lonely Old Town
TTITLE2=Mexican Whistler
TTITLE3=Early One Morning
TTITLE4=Durham Town
TTITLE5=A Day In The Life Of A Lucky Man
TTITLE6=Ride A Country Road
TTITLE7=Herceuso Pour Mon Amour
TTITLE8=Morning Has Broken
TTITLE9=Skye Boat Song
TTITLE10=Kilgary Mountain
TTITLE11=The Last Farewell
EXTD=
EXTT0=
EXTT1=
EXTT2=
EXTT3=
EXTT4=
EXTT5=
EXTT6=
EXTT7=
EXTT8=
EXTT9=
EXTT10=
EXTT11=
PLAYORDER=
